{
    "asset" : {
        "generator" : "Khronos glTF Blender I/O v1.6.16",
        "version" : "2.0"
    },
    "extensionsUsed" : [
        "KHR_lights_punctual"
    ],
    "extensionsRequired" : [
        "KHR_lights_punctual"
    ],
    "extensions" : {
        "KHR_lights_punctual" : {
            "lights" : [
                {
                    "color" : [
                        0.1748386174440384,
                        0.00523440120741725,
                        1
                    ],
                    "intensity" : 200,
                    "spot" : {
                        "innerConeAngle" : 0.1572599690555827,
                        "outerConeAngle" : 0.18501172959804535
                    },
                    "type" : "spot",
                    "name" : "BlackLightSpotLight"
                }
            ]
        }
    },
    "scene" : 0,
    "scenes" : [
        {
            "name" : "Scene",
            "nodes" : [
                0,
                1,
                2,
                3,
                5
            ]
        }
    ],
    "nodes" : [
        {
            "mesh" : 0,
            "name" : "InvBlacklightFlashlight",
            "rotation" : [
                0,
                0.7071068286895752,
                0,
                -0.7071068286895752
            ],
            "translation" : [
                0.5,
                0,
                -1.5
            ]
        },
        {
            "mesh" : 1,
            "name" : "InvBallStatueBlue",
            "scale" : [
                0.1217760518193245,
                0.18266408145427704,
                0.1217760518193245
            ],
            "translation" : [
                0.5,
                0,
                -1.5
            ]
        },
        {
            "mesh" : 2,
            "name" : "InvBallStatueRed",
            "scale" : [
                0.12177599966526031,
                0.18266408145427704,
                0.1217760518193245
            ],
            "translation" : [
                0.5,
                0,
                -1.5
            ]
        },
        {
            "mesh" : 3,
            "name" : "InvBallStatueGreen",
            "scale" : [
                0.1217760518193245,
                0.18266408145427704,
                0.1217760518193245
            ],
            "translation" : [
                0.5,
                0,
                -1.5
            ]
        },
        {
            "extensions" : {
                "KHR_lights_punctual" : {
                    "light" : 0
                }
            },
            "name" : "BlacklightSpot_Orientation",
            "rotation" : [
                -0.7071067690849304,
                0,
                0,
                0.7071067690849304
            ]
        },
        {
            "children" : [
                4
            ],
            "name" : "BlacklightSpot",
            "rotation" : [
                0.7071068286895752,
                0,
                0,
                0.7071068286895752
            ],
            "translation" : [
                0.49784165620803833,
                0,
                -1.7645360231399536
            ]
        }
    ],
    "materials" : [
        {
            "doubleSided" : true,
            "name" : "Material.007",
            "pbrMetallicRoughness" : {
                "baseColorTexture" : {
                    "index" : 0
                },
                "roughnessFactor" : 0.5527864098548889
            }
        },
        {
            "doubleSided" : true,
            "name" : "StatueBlue.001",
            "pbrMetallicRoughness" : {
                "baseColorTexture" : {
                    "index" : 1
                },
                "roughnessFactor" : 0.5527864098548889
            }
        },
        {
            "doubleSided" : true,
            "name" : "StatueRed",
            "pbrMetallicRoughness" : {
                "baseColorTexture" : {
                    "index" : 2
                },
                "metallicFactor" : 0.3645319938659668,
                "roughnessFactor" : 0.5527864098548889
            }
        },
        {
            "doubleSided" : true,
            "name" : "BallStatueGreen",
            "pbrMetallicRoughness" : {
                "baseColorTexture" : {
                    "index" : 3
                },
                "metallicFactor" : 0,
                "roughnessFactor" : 0.5
            }
        }
    ],
    "meshes" : [
        {
            "name" : "InvBlacklightFlashlight",
            "primitives" : [
                {
                    "attributes" : {
                        "POSITION" : 0,
                        "NORMAL" : 1,
                        "TEXCOORD_0" : 2
                    },
                    "indices" : 3,
                    "material" : 0
                }
            ]
        },
        {
            "name" : "InvBallStatueBlue",
            "primitives" : [
                {
                    "attributes" : {
                        "POSITION" : 4,
                        "NORMAL" : 5,
                        "TEXCOORD_0" : 6
                    },
                    "indices" : 7,
                    "material" : 1
                }
            ]
        },
        {
            "name" : "InvBallStatueRed",
            "primitives" : [
                {
                    "attributes" : {
                        "POSITION" : 8,
                        "NORMAL" : 9,
                        "TEXCOORD_0" : 10
                    },
                    "indices" : 7,
                    "material" : 2
                }
            ]
        },
        {
            "name" : "InvBallStatueGreen",
            "primitives" : [
                {
                    "attributes" : {
                        "POSITION" : 11,
                        "NORMAL" : 12,
                        "TEXCOORD_0" : 13
                    },
                    "indices" : 7,
                    "material" : 3
                }
            ]
        }
    ],
    "textures" : [
        {
            "sampler" : 0,
            "source" : 0
        },
        {
            "sampler" : 0,
            "source" : 1
        },
        {
            "sampler" : 0,
            "source" : 2
        },
        {
            "sampler" : 0,
            "source" : 3
        }
    ],
    "images" : [
        {
            "bufferView" : 4,
            "mimeType" : "image/png",
            "name" : "BlackLight"
        },
        {
            "bufferView" : 9,
            "mimeType" : "image/png",
            "name" : "BlueBallStatueUV"
        },
        {
            "bufferView" : 13,
            "mimeType" : "image/png",
            "name" : "RedBallStatueUV"
        },
        {
            "bufferView" : 17,
            "mimeType" : "image/png",
            "name" : "GreenBallStatueUV"
        }
    ],
    "accessors" : [
        {
            "bufferView" : 0,
            "componentType" : 5126,
            "count" : 3984,
            "max" : [
                0.29009518027305603,
                0.07464633136987686,
                0.07501622289419174
            ],
            "min" : [
                -0.2875683605670929,
                -0.07464630901813507,
                -0.07501622289419174
            ],
            "type" : "VEC3"
        },
        {
            "bufferView" : 1,
            "componentType" : 5126,
            "count" : 3984,
            "type" : "VEC3"
        },
        {
            "bufferView" : 2,
            "componentType" : 5126,
            "count" : 3984,
            "type" : "VEC2"
        },
        {
            "bufferView" : 3,
            "componentType" : 5123,
            "count" : 6948,
            "type" : "SCALAR"
        },
        {
            "bufferView" : 5,
            "componentType" : 5126,
            "count" : 1536,
            "max" : [
                1.6423590183258057,
                0.8389816880226135,
                1.6423590183258057
            ],
            "min" : [
                -1.6423590183258057,
                -1.0522878170013428,
                -1.6423590183258057
            ],
            "type" : "VEC3"
        },
        {
            "bufferView" : 6,
            "componentType" : 5126,
            "count" : 1536,
            "type" : "VEC3"
        },
        {
            "bufferView" : 7,
            "componentType" : 5126,
            "count" : 1536,
            "type" : "VEC2"
        },
        {
            "bufferView" : 8,
            "componentType" : 5123,
            "count" : 2472,
            "type" : "SCALAR"
        },
        {
            "bufferView" : 10,
            "componentType" : 5126,
            "count" : 1536,
            "max" : [
                1.6423590183258057,
                0.8389816880226135,
                1.6423590183258057
            ],
            "min" : [
                -1.6423590183258057,
                -1.0522878170013428,
                -1.6423590183258057
            ],
            "type" : "VEC3"
        },
        {
            "bufferView" : 11,
            "componentType" : 5126,
            "count" : 1536,
            "type" : "VEC3"
        },
        {
            "bufferView" : 12,
            "componentType" : 5126,
            "count" : 1536,
            "type" : "VEC2"
        },
        {
            "bufferView" : 14,
            "componentType" : 5126,
            "count" : 1536,
            "max" : [
                1.6423590183258057,
                0.8389816880226135,
                1.6423590183258057
            ],
            "min" : [
                -1.6423590183258057,
                -1.0522878170013428,
                -1.6423590183258057
            ],
            "type" : "VEC3"
        },
        {
            "bufferView" : 15,
            "componentType" : 5126,
            "count" : 1536,
            "type" : "VEC3"
        },
        {
            "bufferView" : 16,
            "componentType" : 5126,
            "count" : 1536,
            "type" : "VEC2"
        }
    ],
    "bufferViews" : [
        {
            "buffer" : 0,
            "byteLength" : 47808,
            "byteOffset" : 0
        },
        {
            "buffer" : 0,
            "byteLength" : 47808,
            "byteOffset" : 47808
        },
        {
            "buffer" : 0,
            "byteLength" : 31872,
            "byteOffset" : 95616
        },
        {
            "buffer" : 0,
            "byteLength" : 13896,
            "byteOffset" : 127488
        },
        {
            "buffer" : 0,
            "byteLength" : 6881,
            "byteOffset" : 141384
        },
        {
            "buffer" : 0,
            "byteLength" : 18432,
            "byteOffset" : 148268
        },
        {
            "buffer" : 0,
            "byteLength" : 18432,
            "byteOffset" : 166700
        },
        {
            "buffer" : 0,
            "byteLength" : 12288,
            "byteOffset" : 185132
        },
        {
            "buffer" : 0,
            "byteLength" : 4944,
            "byteOffset" : 197420
        },
        {
            "buffer" : 0,
            "byteLength" : 8203,
            "byteOffset" : 202364
        },
        {
            "buffer" : 0,
            "byteLength" : 18432,
            "byteOffset" : 210568
        },
        {
            "buffer" : 0,
            "byteLength" : 18432,
            "byteOffset" : 229000
        },
        {
            "buffer" : 0,
            "byteLength" : 12288,
            "byteOffset" : 247432
        },
        {
            "buffer" : 0,
            "byteLength" : 8149,
            "byteOffset" : 259720
        },
        {
            "buffer" : 0,
            "byteLength" : 18432,
            "byteOffset" : 267872
        },
        {
            "buffer" : 0,
            "byteLength" : 18432,
            "byteOffset" : 286304
        },
        {
            "buffer" : 0,
            "byteLength" : 12288,
            "byteOffset" : 304736
        },
        {
            "buffer" : 0,
            "byteLength" : 8220,
            "byteOffset" : 317024
        }
    ],
    "samplers" : [
        {
            "magFilter" : 9729,
            "minFilter" : 9987
        }
    ],
    "buffers" : [
        {
            "byteLength" : 325244,
            "uri" : "data:application/octet-stream;base64,"
        }
    ]
}
